<mxfile host="app.diagrams.net" agent="Mozilla/5.0 (Windows NT 10.0; Win64; x64) AppleWebKit/537.36 (KHTML, like Gecko) Chrome/134.0.0.0 Safari/537.36" version="26.1.3">
  <diagram name="Page-1" id="Ux1CyNn71KIauHhuVe6g">
    <mxGraphModel dx="1845" dy="580" grid="1" gridSize="10" guides="1" tooltips="1" connect="1" arrows="1" fold="1" page="1" pageScale="1" pageWidth="827" pageHeight="1169" background="#ffffff" math="0" shadow="0">
      <root>
        <mxCell id="0" />
        <mxCell id="1" parent="0" />
        <mxCell id="Qm13F_FE6mD6atBALK8a-111" value="" style="rounded=0;html=1;jettySize=auto;orthogonalLoop=1;fontSize=11;endArrow=classic;endFill=1;endSize=8;strokeWidth=1;shadow=0;labelBackgroundColor=none;edgeStyle=orthogonalEdgeStyle;exitX=0.5;exitY=1;exitDx=0;exitDy=0;" parent="1" source="Qm13F_FE6mD6atBALK8a-118" target="Qm13F_FE6mD6atBALK8a-116" edge="1">
          <mxGeometry relative="1" as="geometry">
            <mxPoint x="290" y="270" as="sourcePoint" />
          </mxGeometry>
        </mxCell>
        <mxCell id="Qm13F_FE6mD6atBALK8a-112" value="Авторизован?" style="edgeLabel;html=1;align=center;verticalAlign=middle;resizable=0;points=[];" parent="Qm13F_FE6mD6atBALK8a-111" vertex="1" connectable="0">
          <mxGeometry x="-0.28" y="3" relative="1" as="geometry">
            <mxPoint x="-3" y="100" as="offset" />
          </mxGeometry>
        </mxCell>
        <mxCell id="Qm13F_FE6mD6atBALK8a-113" value="Да" style="rounded=0;html=1;jettySize=auto;orthogonalLoop=1;fontSize=11;endArrow=classic;endFill=1;endSize=8;strokeWidth=1;shadow=0;labelBackgroundColor=none;edgeStyle=orthogonalEdgeStyle;" parent="1" source="Qm13F_FE6mD6atBALK8a-116" target="Qm13F_FE6mD6atBALK8a-127" edge="1">
          <mxGeometry x="-0.3371" y="10" relative="1" as="geometry">
            <mxPoint as="offset" />
            <mxPoint x="290" y="540" as="targetPoint" />
          </mxGeometry>
        </mxCell>
        <mxCell id="Qm13F_FE6mD6atBALK8a-114" value="Нет" style="edgeStyle=orthogonalEdgeStyle;rounded=0;html=1;jettySize=auto;orthogonalLoop=1;fontSize=11;endArrow=classic;endFill=1;endSize=8;strokeWidth=1;shadow=0;labelBackgroundColor=none;" parent="1" source="Qm13F_FE6mD6atBALK8a-116" target="Qm13F_FE6mD6atBALK8a-124" edge="1">
          <mxGeometry x="-0.7501" y="10" relative="1" as="geometry">
            <mxPoint as="offset" />
            <mxPoint x="420" y="410" as="targetPoint" />
            <Array as="points">
              <mxPoint x="460" y="410" />
            </Array>
          </mxGeometry>
        </mxCell>
        <mxCell id="Qm13F_FE6mD6atBALK8a-115" style="edgeStyle=orthogonalEdgeStyle;rounded=0;orthogonalLoop=1;jettySize=auto;html=1;exitX=1;exitY=0.5;exitDx=0;exitDy=0;entryX=0.5;entryY=0;entryDx=0;entryDy=0;" parent="1" source="Qm13F_FE6mD6atBALK8a-116" target="Qm13F_FE6mD6atBALK8a-150" edge="1">
          <mxGeometry relative="1" as="geometry" />
        </mxCell>
        <mxCell id="Qm13F_FE6mD6atBALK8a-116" value="" style="rhombus;whiteSpace=wrap;html=1;shadow=0;fontFamily=Helvetica;fontSize=12;align=center;strokeWidth=1;spacing=6;spacingTop=-4;" parent="1" vertex="1">
          <mxGeometry x="240" y="370" width="100" height="80" as="geometry" />
        </mxCell>
        <mxCell id="Qm13F_FE6mD6atBALK8a-256" style="edgeStyle=orthogonalEdgeStyle;rounded=0;orthogonalLoop=1;jettySize=auto;html=1;exitX=0;exitY=0.5;exitDx=0;exitDy=0;" parent="1" source="Qm13F_FE6mD6atBALK8a-118" edge="1">
          <mxGeometry relative="1" as="geometry">
            <mxPoint x="-270" y="1080" as="targetPoint" />
          </mxGeometry>
        </mxCell>
        <mxCell id="Qm13F_FE6mD6atBALK8a-118" value="Открыть сайт" style="rounded=0;whiteSpace=wrap;html=1;" parent="1" vertex="1">
          <mxGeometry x="230" y="90" width="120" height="60" as="geometry" />
        </mxCell>
        <mxCell id="Qm13F_FE6mD6atBALK8a-119" value="" style="ellipse;shape=doubleEllipse;whiteSpace=wrap;html=1;aspect=fixed;fillColor=#000000;" parent="1" vertex="1">
          <mxGeometry x="280" width="20" height="20" as="geometry" />
        </mxCell>
        <mxCell id="Qm13F_FE6mD6atBALK8a-120" value="" style="endArrow=classic;html=1;rounded=0;" parent="1" source="Qm13F_FE6mD6atBALK8a-119" target="Qm13F_FE6mD6atBALK8a-118" edge="1">
          <mxGeometry width="50" height="50" relative="1" as="geometry">
            <mxPoint x="620" y="260" as="sourcePoint" />
            <mxPoint x="670" y="210" as="targetPoint" />
          </mxGeometry>
        </mxCell>
        <mxCell id="Qm13F_FE6mD6atBALK8a-123" style="edgeStyle=orthogonalEdgeStyle;rounded=0;orthogonalLoop=1;jettySize=auto;html=1;exitX=0.5;exitY=1;exitDx=0;exitDy=0;entryX=1;entryY=0.5;entryDx=0;entryDy=0;" parent="1" source="Qm13F_FE6mD6atBALK8a-124" target="Qm13F_FE6mD6atBALK8a-127" edge="1">
          <mxGeometry relative="1" as="geometry" />
        </mxCell>
        <mxCell id="Qm13F_FE6mD6atBALK8a-124" value="Вход в аккаунт" style="rounded=0;whiteSpace=wrap;html=1;" parent="1" vertex="1">
          <mxGeometry x="400" y="450" width="120" height="60" as="geometry" />
        </mxCell>
        <mxCell id="Qm13F_FE6mD6atBALK8a-125" style="edgeStyle=orthogonalEdgeStyle;rounded=0;orthogonalLoop=1;jettySize=auto;html=1;exitX=0.5;exitY=1;exitDx=0;exitDy=0;entryX=0.5;entryY=0;entryDx=0;entryDy=0;" parent="1" source="Qm13F_FE6mD6atBALK8a-127" target="Qm13F_FE6mD6atBALK8a-148" edge="1">
          <mxGeometry relative="1" as="geometry" />
        </mxCell>
        <mxCell id="Qm13F_FE6mD6atBALK8a-126" style="edgeStyle=orthogonalEdgeStyle;rounded=0;orthogonalLoop=1;jettySize=auto;html=1;exitX=0.5;exitY=1;exitDx=0;exitDy=0;entryX=0.5;entryY=0;entryDx=0;entryDy=0;" parent="1" source="Qm13F_FE6mD6atBALK8a-127" target="Qm13F_FE6mD6atBALK8a-129" edge="1">
          <mxGeometry relative="1" as="geometry" />
        </mxCell>
        <mxCell id="Qm13F_FE6mD6atBALK8a-221" style="edgeStyle=orthogonalEdgeStyle;rounded=0;orthogonalLoop=1;jettySize=auto;html=1;exitX=0.5;exitY=1;exitDx=0;exitDy=0;entryX=0.5;entryY=0;entryDx=0;entryDy=0;" parent="1" source="Qm13F_FE6mD6atBALK8a-127" target="Qm13F_FE6mD6atBALK8a-158" edge="1">
          <mxGeometry relative="1" as="geometry" />
        </mxCell>
        <mxCell id="Qm13F_FE6mD6atBALK8a-222" style="edgeStyle=orthogonalEdgeStyle;rounded=0;orthogonalLoop=1;jettySize=auto;html=1;exitX=0.5;exitY=1;exitDx=0;exitDy=0;entryX=0.5;entryY=0;entryDx=0;entryDy=0;" parent="1" source="Qm13F_FE6mD6atBALK8a-127" target="Qm13F_FE6mD6atBALK8a-146" edge="1">
          <mxGeometry relative="1" as="geometry" />
        </mxCell>
        <mxCell id="Qm13F_FE6mD6atBALK8a-242" style="edgeStyle=orthogonalEdgeStyle;rounded=0;orthogonalLoop=1;jettySize=auto;html=1;exitX=0.5;exitY=1;exitDx=0;exitDy=0;entryX=0.5;entryY=0;entryDx=0;entryDy=0;" parent="1" source="Qm13F_FE6mD6atBALK8a-127" target="Qm13F_FE6mD6atBALK8a-163" edge="1">
          <mxGeometry relative="1" as="geometry" />
        </mxCell>
        <mxCell id="Qm13F_FE6mD6atBALK8a-255" style="edgeStyle=orthogonalEdgeStyle;rounded=0;orthogonalLoop=1;jettySize=auto;html=1;exitX=0;exitY=0.5;exitDx=0;exitDy=0;" parent="1" source="Qm13F_FE6mD6atBALK8a-127" edge="1">
          <mxGeometry relative="1" as="geometry">
            <mxPoint x="-230" y="1080" as="targetPoint" />
          </mxGeometry>
        </mxCell>
        <mxCell id="Qm13F_FE6mD6atBALK8a-127" value="Авторизация" style="rounded=0;whiteSpace=wrap;html=1;" parent="1" vertex="1">
          <mxGeometry x="230" y="520" width="120" height="60" as="geometry" />
        </mxCell>
        <mxCell id="Qm13F_FE6mD6atBALK8a-257" style="edgeStyle=orthogonalEdgeStyle;rounded=0;orthogonalLoop=1;jettySize=auto;html=1;exitX=0.5;exitY=1;exitDx=0;exitDy=0;" parent="1" source="Qm13F_FE6mD6atBALK8a-129" edge="1">
          <mxGeometry relative="1" as="geometry">
            <mxPoint x="600" y="1080" as="targetPoint" />
          </mxGeometry>
        </mxCell>
        <mxCell id="Qm13F_FE6mD6atBALK8a-129" value="Редактировать профиль" style="rounded=0;whiteSpace=wrap;html=1;" parent="1" vertex="1">
          <mxGeometry x="540" y="720" width="120" height="60" as="geometry" />
        </mxCell>
        <mxCell id="Qm13F_FE6mD6atBALK8a-143" value="" style="ellipse;html=1;shape=endState;fillColor=#000000;strokeColor=#000000;" parent="1" vertex="1">
          <mxGeometry x="345" y="1240" width="30" height="30" as="geometry" />
        </mxCell>
        <mxCell id="Qm13F_FE6mD6atBALK8a-239" style="edgeStyle=orthogonalEdgeStyle;rounded=0;orthogonalLoop=1;jettySize=auto;html=1;exitX=0.25;exitY=1;exitDx=0;exitDy=0;entryX=0.5;entryY=0;entryDx=0;entryDy=0;" parent="1" source="Qm13F_FE6mD6atBALK8a-146" target="Qm13F_FE6mD6atBALK8a-153" edge="1">
          <mxGeometry relative="1" as="geometry" />
        </mxCell>
        <mxCell id="Qm13F_FE6mD6atBALK8a-240" style="edgeStyle=orthogonalEdgeStyle;rounded=0;orthogonalLoop=1;jettySize=auto;html=1;exitX=0.75;exitY=1;exitDx=0;exitDy=0;entryX=0.5;entryY=0;entryDx=0;entryDy=0;" parent="1" source="Qm13F_FE6mD6atBALK8a-146" target="Qm13F_FE6mD6atBALK8a-160" edge="1">
          <mxGeometry relative="1" as="geometry" />
        </mxCell>
        <mxCell id="Qm13F_FE6mD6atBALK8a-146" value="Просмотреть диалоги с клиентами" style="rounded=0;whiteSpace=wrap;html=1;" parent="1" vertex="1">
          <mxGeometry x="60" y="720" width="120" height="60" as="geometry" />
        </mxCell>
        <mxCell id="Qm13F_FE6mD6atBALK8a-253" style="edgeStyle=orthogonalEdgeStyle;rounded=0;orthogonalLoop=1;jettySize=auto;html=1;exitX=0.5;exitY=1;exitDx=0;exitDy=0;" parent="1" source="Qm13F_FE6mD6atBALK8a-148" edge="1">
          <mxGeometry relative="1" as="geometry">
            <mxPoint x="440" y="1080" as="targetPoint" />
          </mxGeometry>
        </mxCell>
        <mxCell id="Qm13F_FE6mD6atBALK8a-148" value="Просмотр страниц для авторизованных пользователей" style="rounded=0;whiteSpace=wrap;html=1;" parent="1" vertex="1">
          <mxGeometry x="380" y="720" width="120" height="60" as="geometry" />
        </mxCell>
        <mxCell id="Qm13F_FE6mD6atBALK8a-258" style="edgeStyle=orthogonalEdgeStyle;rounded=0;orthogonalLoop=1;jettySize=auto;html=1;exitX=0.5;exitY=1;exitDx=0;exitDy=0;" parent="1" source="Qm13F_FE6mD6atBALK8a-150" edge="1">
          <mxGeometry relative="1" as="geometry">
            <mxPoint x="720" y="1080" as="targetPoint" />
          </mxGeometry>
        </mxCell>
        <mxCell id="Qm13F_FE6mD6atBALK8a-150" value="Просмотр страниц для неавторизованных пользователей" style="rounded=0;whiteSpace=wrap;html=1;" parent="1" vertex="1">
          <mxGeometry x="660" y="450" width="120" height="60" as="geometry" />
        </mxCell>
        <mxCell id="Qm13F_FE6mD6atBALK8a-151" style="edgeStyle=orthogonalEdgeStyle;rounded=0;orthogonalLoop=1;jettySize=auto;html=1;exitX=1;exitY=0.5;exitDx=0;exitDy=0;entryX=0;entryY=0.5;entryDx=0;entryDy=0;" parent="1" source="Qm13F_FE6mD6atBALK8a-153" target="Qm13F_FE6mD6atBALK8a-160" edge="1">
          <mxGeometry relative="1" as="geometry" />
        </mxCell>
        <mxCell id="Qm13F_FE6mD6atBALK8a-250" style="edgeStyle=orthogonalEdgeStyle;rounded=0;orthogonalLoop=1;jettySize=auto;html=1;exitX=0.5;exitY=1;exitDx=0;exitDy=0;" parent="1" source="Qm13F_FE6mD6atBALK8a-153" edge="1">
          <mxGeometry relative="1" as="geometry">
            <mxPoint x="-49" y="1080" as="targetPoint" />
          </mxGeometry>
        </mxCell>
        <mxCell id="Qm13F_FE6mD6atBALK8a-153" value="Ответить на сообщение" style="rounded=0;whiteSpace=wrap;html=1;" parent="1" vertex="1">
          <mxGeometry x="-110" y="950" width="120" height="60" as="geometry" />
        </mxCell>
        <mxCell id="Qm13F_FE6mD6atBALK8a-155" style="edgeStyle=orthogonalEdgeStyle;rounded=0;orthogonalLoop=1;jettySize=auto;html=1;exitX=0.5;exitY=1;exitDx=0;exitDy=0;entryX=0.5;entryY=0;entryDx=0;entryDy=0;" parent="1" source="Qm13F_FE6mD6atBALK8a-158" target="Qm13F_FE6mD6atBALK8a-161" edge="1">
          <mxGeometry relative="1" as="geometry">
            <mxPoint x="350" y="950" as="targetPoint" />
          </mxGeometry>
        </mxCell>
        <mxCell id="Qm13F_FE6mD6atBALK8a-225" style="edgeStyle=orthogonalEdgeStyle;rounded=0;orthogonalLoop=1;jettySize=auto;html=1;exitX=0.5;exitY=1;exitDx=0;exitDy=0;entryX=0.75;entryY=0;entryDx=0;entryDy=0;" parent="1" source="Qm13F_FE6mD6atBALK8a-158" target="Qm13F_FE6mD6atBALK8a-160" edge="1">
          <mxGeometry relative="1" as="geometry" />
        </mxCell>
        <mxCell id="Qm13F_FE6mD6atBALK8a-158" value="Просмотр сделок" style="rounded=0;whiteSpace=wrap;html=1;" parent="1" vertex="1">
          <mxGeometry x="230" y="720" width="120" height="60" as="geometry" />
        </mxCell>
        <mxCell id="Qm13F_FE6mD6atBALK8a-251" style="edgeStyle=orthogonalEdgeStyle;rounded=0;orthogonalLoop=1;jettySize=auto;html=1;exitX=0.5;exitY=1;exitDx=0;exitDy=0;" parent="1" source="Qm13F_FE6mD6atBALK8a-160" edge="1">
          <mxGeometry relative="1" as="geometry">
            <mxPoint x="150.00000000000023" y="1080" as="targetPoint" />
          </mxGeometry>
        </mxCell>
        <mxCell id="Qm13F_FE6mD6atBALK8a-160" value="Создать сделку" style="rounded=0;whiteSpace=wrap;html=1;" parent="1" vertex="1">
          <mxGeometry x="90" y="950" width="120" height="60" as="geometry" />
        </mxCell>
        <mxCell id="Qm13F_FE6mD6atBALK8a-252" style="edgeStyle=orthogonalEdgeStyle;rounded=0;orthogonalLoop=1;jettySize=auto;html=1;exitX=0.5;exitY=1;exitDx=0;exitDy=0;" parent="1" source="Qm13F_FE6mD6atBALK8a-161" edge="1">
          <mxGeometry relative="1" as="geometry">
            <mxPoint x="290.0000000000002" y="1080" as="targetPoint" />
          </mxGeometry>
        </mxCell>
        <mxCell id="Qm13F_FE6mD6atBALK8a-161" value="Изменить статус сделки на доступный оператору" style="rounded=0;whiteSpace=wrap;html=1;" parent="1" vertex="1">
          <mxGeometry x="230" y="950" width="120" height="60" as="geometry" />
        </mxCell>
        <mxCell id="Qm13F_FE6mD6atBALK8a-254" style="edgeStyle=orthogonalEdgeStyle;rounded=0;orthogonalLoop=1;jettySize=auto;html=1;exitX=0.5;exitY=1;exitDx=0;exitDy=0;" parent="1" source="Qm13F_FE6mD6atBALK8a-163" edge="1">
          <mxGeometry relative="1" as="geometry">
            <mxPoint x="-140.66666666666652" y="1080" as="targetPoint" />
          </mxGeometry>
        </mxCell>
        <mxCell id="Qm13F_FE6mD6atBALK8a-163" value="Просмотр данных компании" style="rounded=0;whiteSpace=wrap;html=1;" parent="1" vertex="1">
          <mxGeometry x="-200" y="720" width="120" height="60" as="geometry" />
        </mxCell>
        <mxCell id="Qm13F_FE6mD6atBALK8a-216" style="edgeStyle=orthogonalEdgeStyle;rounded=0;orthogonalLoop=1;jettySize=auto;html=1;exitX=0.5;exitY=1;exitDx=0;exitDy=0;entryX=0.5;entryY=0;entryDx=0;entryDy=0;" parent="1" source="Qm13F_FE6mD6atBALK8a-217" target="Qm13F_FE6mD6atBALK8a-143" edge="1">
          <mxGeometry relative="1" as="geometry" />
        </mxCell>
        <mxCell id="Qm13F_FE6mD6atBALK8a-217" value="Покинуть сайт" style="rounded=0;whiteSpace=wrap;html=1;" parent="1" vertex="1">
          <mxGeometry x="300" y="1150" width="120" height="60" as="geometry" />
        </mxCell>
        <mxCell id="Qm13F_FE6mD6atBALK8a-249" value="" style="endArrow=none;html=1;rounded=0;" parent="1" edge="1">
          <mxGeometry width="50" height="50" relative="1" as="geometry">
            <mxPoint x="-270" y="1080" as="sourcePoint" />
            <mxPoint x="720" y="1080" as="targetPoint" />
          </mxGeometry>
        </mxCell>
        <mxCell id="Qm13F_FE6mD6atBALK8a-259" value="" style="endArrow=classic;html=1;rounded=0;entryX=0.5;entryY=0;entryDx=0;entryDy=0;" parent="1" target="Qm13F_FE6mD6atBALK8a-217" edge="1">
          <mxGeometry width="50" height="50" relative="1" as="geometry">
            <mxPoint x="360" y="1080" as="sourcePoint" />
            <mxPoint x="470" y="1110" as="targetPoint" />
          </mxGeometry>
        </mxCell>
      </root>
    </mxGraphModel>
  </diagram>
</mxfile>
